<svg width="70" height="21" viewBox="0 0 70 21" fill="none" xmlns="http://www.w3.org/2000/svg">
<path d="M9.02165 11.4476H5.87123V15.3186C5.87123 15.6372 5.88714 15.9319 5.91896 16.2027C5.95079 16.4576 6.02239 16.6806 6.13377 16.8718C6.24514 17.0629 6.41221 17.2143 6.63497 17.3258C6.87364 17.4214 7.18391 17.4692 7.56577 17.4692C7.75671 17.4692 8.00333 17.4532 8.30564 17.4214C8.62387 17.3736 8.86254 17.278 9.02165 17.1346V20.1215C8.62387 20.2649 8.21018 20.3604 7.78058 20.4082C7.35097 20.456 6.92933 20.4799 6.51564 20.4799C5.91101 20.4799 5.35412 20.4162 4.84496 20.2887C4.3358 20.1613 3.89029 19.9622 3.50842 19.6914C3.12655 19.4046 2.82424 19.0383 2.60148 18.5922C2.39464 18.1462 2.29121 17.6046 2.29121 16.9674V11.4476H0V8.58027H2.29121V5.1394H5.87123V8.58027H9.02165V11.4476Z" fill="white"/>
<path d="M11.1393 8.58027H14.7193V10.4441H14.767C15.1489 9.72722 15.6024 9.19357 16.1274 8.84311C16.6525 8.47672 17.3128 8.29353 18.1084 8.29353C18.3152 8.29353 18.5221 8.30149 18.7289 8.31742C18.9358 8.33335 19.1267 8.36521 19.3017 8.413V11.6866C19.0471 11.6069 18.7926 11.5512 18.538 11.5193C18.2993 11.4715 18.0447 11.4476 17.7742 11.4476C17.0901 11.4476 16.5491 11.5432 16.1513 11.7344C15.7535 11.9255 15.4432 12.1964 15.2205 12.5468C15.0136 12.8813 14.8784 13.2876 14.8148 13.7655C14.7511 14.2433 14.7193 14.769 14.7193 15.3425V20.1932H11.1393V8.58027Z" fill="white"/>
<path d="M28.4362 18.7356H28.3884C27.9907 19.3568 27.4576 19.8029 26.7894 20.0737C26.137 20.3445 25.4449 20.4799 24.7129 20.4799C24.172 20.4799 23.6469 20.4003 23.1377 20.241C22.6445 20.0976 22.2069 19.8746 21.8251 19.5719C21.4432 19.2692 21.1409 18.8949 20.9181 18.4488C20.6954 18.0028 20.584 17.4851 20.584 16.8957C20.584 16.2266 20.7033 15.6611 20.942 15.1991C21.1966 14.7372 21.5307 14.3549 21.9444 14.0522C22.374 13.7495 22.8593 13.5185 23.4003 13.3592C23.9413 13.184 24.4981 13.0566 25.0709 12.9769C25.6597 12.8973 26.2404 12.8495 26.8132 12.8336C27.4019 12.8176 27.9429 12.8097 28.4362 12.8097C28.4362 12.1725 28.2055 11.6707 27.744 11.3043C27.2985 10.922 26.7655 10.7308 26.145 10.7308C25.5562 10.7308 25.0153 10.8582 24.522 11.1131C24.0447 11.3521 23.6151 11.6866 23.2332 12.1167L21.3239 10.1573C21.9921 9.53606 22.7718 9.07409 23.6628 8.77142C24.5538 8.45283 25.4767 8.29353 26.4314 8.29353C27.4815 8.29353 28.3407 8.42893 29.009 8.69974C29.6932 8.95462 30.2341 9.33694 30.6319 9.84669C31.0456 10.3565 31.332 10.9857 31.4911 11.7344C31.6502 12.4672 31.7298 13.3194 31.7298 14.2911V20.1932H28.4362V18.7356ZM27.5531 15.1036C27.2826 15.1036 26.9405 15.1195 26.5268 15.1514C26.129 15.1673 25.7392 15.231 25.3574 15.3425C24.9914 15.454 24.6732 15.6213 24.4027 15.8443C24.1481 16.0673 24.0208 16.378 24.0208 16.7762C24.0208 17.2063 24.2038 17.5249 24.5697 17.732C24.9357 17.9391 25.3176 18.0426 25.7154 18.0426C26.0654 18.0426 26.3995 17.9948 26.7178 17.8993C27.0519 17.8037 27.3462 17.6683 27.6008 17.493C27.8554 17.3178 28.0543 17.0948 28.1975 16.824C28.3566 16.5532 28.4362 16.2346 28.4362 15.8682V15.1036H27.5531Z" fill="white"/>
<path d="M33.057 8.58027H36.9234L39.859 16.4656H39.9068L42.6276 8.58027H46.2315L41.649 20.1932H37.8542L33.057 8.58027Z" fill="white"/>
<path d="M58.8132 18.186C58.2404 18.9188 57.5164 19.4843 56.6413 19.8825C55.7662 20.2808 54.8593 20.4799 53.9205 20.4799C53.0295 20.4799 52.1862 20.3365 51.3906 20.0498C50.611 19.7631 49.9268 19.3568 49.3381 18.8312C48.7653 18.2895 48.3118 17.6444 47.9777 16.8957C47.6435 16.147 47.4765 15.3107 47.4765 14.3867C47.4765 13.4628 47.6435 12.6265 47.9777 11.8778C48.3118 11.1291 48.7653 10.4919 49.3381 9.96617C49.9268 9.42455 50.611 9.01037 51.3906 8.72363C52.1862 8.4369 53.0295 8.29353 53.9205 8.29353C54.7479 8.29353 55.4957 8.4369 56.164 8.72363C56.8482 9.01037 57.421 9.42455 57.8824 9.96617C58.3597 10.4919 58.7257 11.1291 58.9803 11.8778C59.2348 12.6265 59.3621 13.4628 59.3621 14.3867V15.5098H51.0565C51.1997 16.1948 51.51 16.7443 51.9873 17.1585C52.4646 17.5568 53.0533 17.7559 53.7534 17.7559C54.3421 17.7559 54.8354 17.6285 55.2332 17.3736C55.6469 17.1028 56.0049 16.7603 56.3072 16.3461L58.8132 18.186ZM55.7821 13.0725C55.798 12.4672 55.5991 11.9494 55.1854 11.5193C54.7717 11.0892 54.2387 10.8742 53.5864 10.8742C53.1886 10.8742 52.8385 10.9379 52.5362 11.0653C52.2339 11.1928 51.9714 11.36 51.7486 11.5671C51.5418 11.7583 51.3747 11.9893 51.2474 12.2601C51.136 12.515 51.0724 12.7858 51.0565 13.0725H55.7821Z" fill="white"/>
<path d="M61.8376 8.58027H65.4176V10.4441H65.4653C65.8472 9.72722 66.3006 9.19357 66.8257 8.84311C67.3508 8.47672 68.0111 8.29353 68.8067 8.29353C69.0135 8.29353 69.2204 8.30149 69.4272 8.31742C69.634 8.33335 69.825 8.36521 70 8.413V11.6866C69.7454 11.6069 69.4908 11.5512 69.2363 11.5193C68.9976 11.4715 68.743 11.4476 68.4725 11.4476C67.7883 11.4476 67.2474 11.5432 66.8496 11.7344C66.4518 11.9255 66.1415 12.1964 65.9188 12.5468C65.7119 12.8813 65.5767 13.2876 65.513 13.7655C65.4494 14.2433 65.4176 14.769 65.4176 15.3425V20.1932H61.8376V8.58027Z" fill="white"/>
<ellipse cx="39.8476" cy="4.3629" rx="3.87835" ry="3.88292" fill="#FCD240"/>
</svg>
