<!DOCTYPE svg PUBLIC "-//W3C//DTD SVG 1.1//EN" "http://www.w3.org/Graphics/SVG/1.1/DTD/svg11.dtd">
<!-- Uploaded to: SVG Repo, www.svgrepo.com, Transformed by: SVG Repo Mixer Tools -->
<svg width="800px" height="800px" viewBox="0 0 24 24" fill="none" xmlns="http://www.w3.org/2000/svg" transform="matrix(1, 0, 0, 1, 0, 0)">
<g id="SVGRepo_bgCarrier" stroke-width="0"/>
<g id="SVGRepo_tracerCarrier" stroke-linecap="round" stroke-linejoin="round"/>
<g id="SVGRepo_iconCarrier">
<path fill-rule="evenodd" clip-rule="evenodd" d="M2.5 12a9.5 9.5 0 1 1 19 0 9.5 9.5 0 0 1-19 0zM12 .5C5.649.5.5 5.649.5 12S5.649 23.5 12 23.5 23.5 18.351 23.5 12 18.351.5 12 .5zM11 7a1 1 0 1 1 2 0v5h4a1 1 0 1 1 0 2h-5a1 1 0 0 1-1-1V7z" fill="#bababa"/>
</g>
</svg>