<svg width="26" height="26" viewBox="0 0 26 26" fill="none" xmlns="http://www.w3.org/2000/svg">
<path d="M15.1621 2.38779L17.3621 6.78779C17.6621 7.40029 18.4621 7.98779 19.1371 8.10029L23.1246 8.76279C25.6746 9.18779 26.2746 11.0378 24.4371 12.8628L21.3371 15.9628C20.8121 16.4878 20.5246 17.5003 20.6871 18.2253L21.5746 22.0628C22.2746 25.1003 20.6621 26.2753 17.9746 24.6878L14.2371 22.4753C13.5621 22.0753 12.4496 22.0753 11.7621 22.4753L8.02464 24.6878C5.34964 26.2753 3.72464 25.0878 4.42464 22.0628L5.31214 18.2253C5.47464 17.5003 5.18714 16.4878 4.66214 15.9628L1.56214 12.8628C-0.262858 11.0378 0.324642 9.18779 2.87464 8.76279L6.86214 8.10029C7.52464 7.98779 8.32464 7.40029 8.62464 6.78779L10.8246 2.38779C12.0246 0.000293016 13.9746 0.000293016 15.1621 2.38779Z" fill="#FCD240"/>
</svg>
